<mxfile host="Electron" modified="2023-12-26T10:44:21.541Z" agent="Mozilla/5.0 (Windows NT 10.0; Win64; x64) AppleWebKit/537.36 (KHTML, like Gecko) draw.io/22.0.2 Chrome/114.0.5735.289 Electron/25.8.4 Safari/537.36" etag="TqViWuTwjbpBai4Ob9y7" version="22.0.2" type="device">
  <diagram name="Page-1" id="HnKGBBp5x6gP0slBC9qZ">
    <mxGraphModel dx="2072" dy="1228" grid="1" gridSize="10" guides="1" tooltips="1" connect="1" arrows="1" fold="1" page="1" pageScale="1" pageWidth="850" pageHeight="1100" math="0" shadow="0">
      <root>
        <mxCell id="0" />
        <mxCell id="1" parent="0" />
        <mxCell id="-3Q4nJQPwr2-92pg-q6b-1" value="Course" style="swimlane;fontStyle=1;align=center;verticalAlign=top;childLayout=stackLayout;horizontal=1;startSize=26;horizontalStack=0;resizeParent=1;resizeParentMax=0;resizeLast=0;collapsible=1;marginBottom=0;whiteSpace=wrap;html=1;" parent="1" vertex="1">
          <mxGeometry x="40" y="40" width="170" height="230" as="geometry">
            <mxRectangle x="40" y="40" width="80" height="30" as="alternateBounds" />
          </mxGeometry>
        </mxCell>
        <mxCell id="-3Q4nJQPwr2-92pg-q6b-2" value="&lt;b&gt;- courseId: integer&lt;br&gt;&lt;/b&gt;&amp;nbsp;- courseName: var char&lt;br&gt;- description: text&lt;br&gt;&amp;nbsp;- duration: interval&lt;br&gt;&amp;nbsp;-- costPerLesson: numeric" style="text;strokeColor=none;fillColor=none;align=left;verticalAlign=top;spacingLeft=4;spacingRight=4;overflow=hidden;rotatable=0;points=[[0,0.5],[1,0.5]];portConstraint=eastwest;whiteSpace=wrap;html=1;" parent="-3Q4nJQPwr2-92pg-q6b-1" vertex="1">
          <mxGeometry y="26" width="170" height="114" as="geometry" />
        </mxCell>
        <mxCell id="-3Q4nJQPwr2-92pg-q6b-3" value="" style="line;strokeWidth=1;fillColor=none;align=left;verticalAlign=middle;spacingTop=-1;spacingLeft=3;spacingRight=3;rotatable=0;labelPosition=right;points=[];portConstraint=eastwest;strokeColor=inherit;" parent="-3Q4nJQPwr2-92pg-q6b-1" vertex="1">
          <mxGeometry y="140" width="170" height="8" as="geometry" />
        </mxCell>
        <mxCell id="-3Q4nJQPwr2-92pg-q6b-4" value="+add&lt;br style=&quot;border-color: var(--border-color);&quot;&gt;+retrieval&lt;br style=&quot;border-color: var(--border-color);&quot;&gt;+update&lt;br style=&quot;border-color: var(--border-color);&quot;&gt;+delete&lt;br&gt;+search&lt;br&gt;" style="text;strokeColor=none;fillColor=none;align=left;verticalAlign=top;spacingLeft=4;spacingRight=4;overflow=hidden;rotatable=0;points=[[0,0.5],[1,0.5]];portConstraint=eastwest;whiteSpace=wrap;html=1;" parent="-3Q4nJQPwr2-92pg-q6b-1" vertex="1">
          <mxGeometry y="148" width="170" height="82" as="geometry" />
        </mxCell>
        <mxCell id="-3Q4nJQPwr2-92pg-q6b-5" value="&lt;font color=&quot;#cc0000&quot;&gt;Enrollment&lt;/font&gt;" style="swimlane;fontStyle=1;align=center;verticalAlign=top;childLayout=stackLayout;horizontal=1;startSize=26;horizontalStack=0;resizeParent=1;resizeParentMax=0;resizeLast=0;collapsible=1;marginBottom=0;whiteSpace=wrap;html=1;" parent="1" vertex="1">
          <mxGeometry x="350" y="340" width="170" height="278" as="geometry" />
        </mxCell>
        <mxCell id="-3Q4nJQPwr2-92pg-q6b-6" value="&lt;b&gt; - enrollmentId: String&lt;br&gt;&lt;/b&gt;- enrollmentDate: Date&amp;nbsp; &lt;br&gt;- completionDate: Date  &lt;br&gt;-status:{complete,active}&lt;br&gt;&lt;font color=&quot;#99004d&quot;&gt;&lt;br&gt;&lt;/font&gt;" style="text;strokeColor=none;fillColor=none;align=left;verticalAlign=top;spacingLeft=4;spacingRight=4;overflow=hidden;rotatable=0;points=[[0,0.5],[1,0.5]];portConstraint=eastwest;whiteSpace=wrap;html=1;" parent="-3Q4nJQPwr2-92pg-q6b-5" vertex="1">
          <mxGeometry y="26" width="170" height="144" as="geometry" />
        </mxCell>
        <mxCell id="-3Q4nJQPwr2-92pg-q6b-7" value="" style="line;strokeWidth=1;fillColor=none;align=left;verticalAlign=middle;spacingTop=-1;spacingLeft=3;spacingRight=3;rotatable=0;labelPosition=right;points=[];portConstraint=eastwest;strokeColor=inherit;" parent="-3Q4nJQPwr2-92pg-q6b-5" vertex="1">
          <mxGeometry y="170" width="170" height="8" as="geometry" />
        </mxCell>
        <mxCell id="-3Q4nJQPwr2-92pg-q6b-8" value="+add&lt;br style=&quot;border-color: var(--border-color);&quot;&gt;+retrieval&lt;br style=&quot;border-color: var(--border-color);&quot;&gt;+update&lt;br style=&quot;border-color: var(--border-color);&quot;&gt;+delete&lt;br&gt;+search&lt;br&gt;+report" style="text;strokeColor=none;fillColor=none;align=left;verticalAlign=top;spacingLeft=4;spacingRight=4;overflow=hidden;rotatable=0;points=[[0,0.5],[1,0.5]];portConstraint=eastwest;whiteSpace=wrap;html=1;" parent="-3Q4nJQPwr2-92pg-q6b-5" vertex="1">
          <mxGeometry y="178" width="170" height="100" as="geometry" />
        </mxCell>
        <mxCell id="-3Q4nJQPwr2-92pg-q6b-9" value="Lesson" style="swimlane;fontStyle=1;align=center;verticalAlign=top;childLayout=stackLayout;horizontal=1;startSize=26;horizontalStack=0;resizeParent=1;resizeParentMax=0;resizeLast=0;collapsible=1;marginBottom=0;whiteSpace=wrap;html=1;" parent="1" vertex="1">
          <mxGeometry x="360" y="30" width="170" height="216" as="geometry" />
        </mxCell>
        <mxCell id="-3Q4nJQPwr2-92pg-q6b-10" value="&lt;b&gt;- lessonId: integer&lt;br&gt;&lt;/b&gt;- lessonDate: Date &lt;br&gt;- startTime: Time" style="text;strokeColor=none;fillColor=none;align=left;verticalAlign=top;spacingLeft=4;spacingRight=4;overflow=hidden;rotatable=0;points=[[0,0.5],[1,0.5]];portConstraint=eastwest;whiteSpace=wrap;html=1;" parent="-3Q4nJQPwr2-92pg-q6b-9" vertex="1">
          <mxGeometry y="26" width="170" height="94" as="geometry" />
        </mxCell>
        <mxCell id="-3Q4nJQPwr2-92pg-q6b-11" value="" style="line;strokeWidth=1;fillColor=none;align=left;verticalAlign=middle;spacingTop=-1;spacingLeft=3;spacingRight=3;rotatable=0;labelPosition=right;points=[];portConstraint=eastwest;strokeColor=inherit;" parent="-3Q4nJQPwr2-92pg-q6b-9" vertex="1">
          <mxGeometry y="120" width="170" height="8" as="geometry" />
        </mxCell>
        <mxCell id="-3Q4nJQPwr2-92pg-q6b-12" value="+add&lt;br style=&quot;border-color: var(--border-color);&quot;&gt;+retrieval&lt;br style=&quot;border-color: var(--border-color);&quot;&gt;+update&lt;br style=&quot;border-color: var(--border-color);&quot;&gt;+delete&lt;br&gt;+search" style="text;strokeColor=none;fillColor=none;align=left;verticalAlign=top;spacingLeft=4;spacingRight=4;overflow=hidden;rotatable=0;points=[[0,0.5],[1,0.5]];portConstraint=eastwest;whiteSpace=wrap;html=1;" parent="-3Q4nJQPwr2-92pg-q6b-9" vertex="1">
          <mxGeometry y="128" width="170" height="88" as="geometry" />
        </mxCell>
        <mxCell id="-3Q4nJQPwr2-92pg-q6b-13" value="Payment" style="swimlane;fontStyle=1;align=center;verticalAlign=top;childLayout=stackLayout;horizontal=1;startSize=26;horizontalStack=0;resizeParent=1;resizeParentMax=0;resizeLast=0;collapsible=1;marginBottom=0;whiteSpace=wrap;html=1;" parent="1" vertex="1">
          <mxGeometry x="650" y="330" width="170" height="250" as="geometry" />
        </mxCell>
        <mxCell id="-3Q4nJQPwr2-92pg-q6b-14" value="&lt;b&gt; paymentId: integer&lt;br&gt;&lt;/b&gt;- amount: numeric&lt;br&gt;- paymentDate: Date&amp;nbsp;&lt;br&gt;- paymentMethod: var char&lt;br&gt;&amp;nbsp;- transactionId: var char" style="text;strokeColor=none;fillColor=none;align=left;verticalAlign=top;spacingLeft=4;spacingRight=4;overflow=hidden;rotatable=0;points=[[0,0.5],[1,0.5]];portConstraint=eastwest;whiteSpace=wrap;html=1;" parent="-3Q4nJQPwr2-92pg-q6b-13" vertex="1">
          <mxGeometry y="26" width="170" height="104" as="geometry" />
        </mxCell>
        <mxCell id="-3Q4nJQPwr2-92pg-q6b-15" value="" style="line;strokeWidth=1;fillColor=none;align=left;verticalAlign=middle;spacingTop=-1;spacingLeft=3;spacingRight=3;rotatable=0;labelPosition=right;points=[];portConstraint=eastwest;strokeColor=inherit;" parent="-3Q4nJQPwr2-92pg-q6b-13" vertex="1">
          <mxGeometry y="130" width="170" height="8" as="geometry" />
        </mxCell>
        <mxCell id="-3Q4nJQPwr2-92pg-q6b-16" value="+add&lt;br style=&quot;border-color: var(--border-color);&quot;&gt;+retrieval&lt;br style=&quot;border-color: var(--border-color);&quot;&gt;+update&lt;br style=&quot;border-color: var(--border-color);&quot;&gt;+delete&lt;br&gt;+search&lt;br style=&quot;border-color: var(--border-color);&quot;&gt;+reprot" style="text;strokeColor=none;fillColor=none;align=left;verticalAlign=top;spacingLeft=4;spacingRight=4;overflow=hidden;rotatable=0;points=[[0,0.5],[1,0.5]];portConstraint=eastwest;whiteSpace=wrap;html=1;" parent="-3Q4nJQPwr2-92pg-q6b-13" vertex="1">
          <mxGeometry y="138" width="170" height="112" as="geometry" />
        </mxCell>
        <mxCell id="-3Q4nJQPwr2-92pg-q6b-17" value="Student" style="swimlane;fontStyle=1;align=center;verticalAlign=top;childLayout=stackLayout;horizontal=1;startSize=26;horizontalStack=0;resizeParent=1;resizeParentMax=0;resizeLast=0;collapsible=1;marginBottom=0;whiteSpace=wrap;html=1;" parent="1" vertex="1">
          <mxGeometry x="40" y="300" width="170" height="318" as="geometry" />
        </mxCell>
        <mxCell id="-3Q4nJQPwr2-92pg-q6b-18" value="&lt;b&gt;- SSN&lt;br&gt;&lt;/b&gt;- name:&lt;br&gt;&amp;nbsp; &amp;nbsp; FName: var char&lt;br&gt;&amp;nbsp; &amp;nbsp; MName: var char&lt;br&gt;&amp;nbsp; &amp;nbsp; LName : var char&lt;br&gt;- DateOfBirth: date age &amp;gt;18&lt;br&gt;-PhoneNumber: var char&lt;br&gt;-Email: var char&lt;br&gt;-password:var char&lt;br&gt;-gender:{male,female}" style="text;strokeColor=none;fillColor=none;align=left;verticalAlign=top;spacingLeft=4;spacingRight=4;overflow=hidden;rotatable=0;points=[[0,0.5],[1,0.5]];portConstraint=eastwest;whiteSpace=wrap;html=1;" parent="-3Q4nJQPwr2-92pg-q6b-17" vertex="1">
          <mxGeometry y="26" width="170" height="194" as="geometry" />
        </mxCell>
        <mxCell id="-3Q4nJQPwr2-92pg-q6b-19" value="" style="line;strokeWidth=1;fillColor=none;align=left;verticalAlign=middle;spacingTop=-1;spacingLeft=3;spacingRight=3;rotatable=0;labelPosition=right;points=[];portConstraint=eastwest;strokeColor=inherit;" parent="-3Q4nJQPwr2-92pg-q6b-17" vertex="1">
          <mxGeometry y="220" width="170" height="8" as="geometry" />
        </mxCell>
        <mxCell id="-3Q4nJQPwr2-92pg-q6b-20" value="+add&lt;br style=&quot;border-color: var(--border-color);&quot;&gt;+retrieval&lt;br style=&quot;border-color: var(--border-color);&quot;&gt;+update&lt;br style=&quot;border-color: var(--border-color);&quot;&gt;+delete&lt;br&gt;+search" style="text;strokeColor=none;fillColor=none;align=left;verticalAlign=top;spacingLeft=4;spacingRight=4;overflow=hidden;rotatable=0;points=[[0,0.5],[1,0.5]];portConstraint=eastwest;whiteSpace=wrap;html=1;" parent="-3Q4nJQPwr2-92pg-q6b-17" vertex="1">
          <mxGeometry y="228" width="170" height="90" as="geometry" />
        </mxCell>
        <mxCell id="-3Q4nJQPwr2-92pg-q6b-21" value="Instructor" style="swimlane;fontStyle=1;align=center;verticalAlign=top;childLayout=stackLayout;horizontal=1;startSize=26;horizontalStack=0;resizeParent=1;resizeParentMax=0;resizeLast=0;collapsible=1;marginBottom=0;whiteSpace=wrap;html=1;" parent="1" vertex="1">
          <mxGeometry x="620" y="39" width="170" height="280" as="geometry" />
        </mxCell>
        <mxCell id="-3Q4nJQPwr2-92pg-q6b-22" value="&lt;div&gt;&lt;b&gt;-ISSN: var char&lt;/b&gt;&lt;/div&gt;&lt;div&gt;- name:&lt;br style=&quot;border-color: var(--border-color);&quot;&gt;&amp;nbsp; &amp;nbsp; FName:var char&lt;br style=&quot;border-color: var(--border-color);&quot;&gt;&amp;nbsp; &amp;nbsp; MName:var char&lt;br style=&quot;border-color: var(--border-color);&quot;&gt;&amp;nbsp; &amp;nbsp; LName: var char&lt;br&gt;&lt;/div&gt;&lt;div&gt;-PhoneNumber: var char&lt;/div&gt;&lt;div&gt;-Email: var char&lt;/div&gt;&lt;div&gt;-LicenseNumber: var char&lt;/div&gt;&lt;div&gt;-salary: numeric&lt;/div&gt;&lt;div&gt;-gender:{mal,female}&lt;/div&gt;&lt;div&gt;-password:var char&lt;/div&gt;&lt;div&gt;&lt;br&gt;&lt;/div&gt;&lt;div&gt;&lt;br&gt;&lt;/div&gt;" style="text;strokeColor=none;fillColor=none;align=left;verticalAlign=top;spacingLeft=4;spacingRight=4;overflow=hidden;rotatable=0;points=[[0,0.5],[1,0.5]];portConstraint=eastwest;whiteSpace=wrap;html=1;" parent="-3Q4nJQPwr2-92pg-q6b-21" vertex="1">
          <mxGeometry y="26" width="170" height="164" as="geometry" />
        </mxCell>
        <mxCell id="-3Q4nJQPwr2-92pg-q6b-23" value="" style="line;strokeWidth=1;fillColor=none;align=left;verticalAlign=middle;spacingTop=-1;spacingLeft=3;spacingRight=3;rotatable=0;labelPosition=right;points=[];portConstraint=eastwest;strokeColor=inherit;" parent="-3Q4nJQPwr2-92pg-q6b-21" vertex="1">
          <mxGeometry y="190" width="170" height="8" as="geometry" />
        </mxCell>
        <mxCell id="-3Q4nJQPwr2-92pg-q6b-24" value="+add&lt;br style=&quot;border-color: var(--border-color);&quot;&gt;+retrieval&lt;br style=&quot;border-color: var(--border-color);&quot;&gt;+update&lt;br style=&quot;border-color: var(--border-color);&quot;&gt;+delete&lt;br&gt;+search" style="text;strokeColor=none;fillColor=none;align=left;verticalAlign=top;spacingLeft=4;spacingRight=4;overflow=hidden;rotatable=0;points=[[0,0.5],[1,0.5]];portConstraint=eastwest;whiteSpace=wrap;html=1;" parent="-3Q4nJQPwr2-92pg-q6b-21" vertex="1">
          <mxGeometry y="198" width="170" height="82" as="geometry" />
        </mxCell>
        <mxCell id="-3Q4nJQPwr2-92pg-q6b-30" value="" style="endArrow=none;html=1;rounded=0;entryX=0;entryY=0.5;entryDx=0;entryDy=0;" parent="1" target="-3Q4nJQPwr2-92pg-q6b-6" edge="1">
          <mxGeometry relative="1" as="geometry">
            <mxPoint x="210" y="438" as="sourcePoint" />
            <mxPoint x="500" y="320" as="targetPoint" />
          </mxGeometry>
        </mxCell>
        <mxCell id="-3Q4nJQPwr2-92pg-q6b-31" value="enroll in" style="text;html=1;align=center;verticalAlign=middle;resizable=0;points=[];autosize=1;strokeColor=none;fillColor=none;" parent="1" vertex="1">
          <mxGeometry x="250" y="410" width="70" height="30" as="geometry" />
        </mxCell>
        <mxCell id="-3Q4nJQPwr2-92pg-q6b-32" value="1..1" style="text;html=1;align=center;verticalAlign=middle;resizable=0;points=[];autosize=1;strokeColor=none;fillColor=none;" parent="1" vertex="1">
          <mxGeometry x="300" y="410" width="40" height="30" as="geometry" />
        </mxCell>
        <mxCell id="-3Q4nJQPwr2-92pg-q6b-33" value="1..*" style="text;html=1;align=center;verticalAlign=middle;resizable=0;points=[];autosize=1;strokeColor=none;fillColor=none;" parent="1" vertex="1">
          <mxGeometry x="215" y="410" width="40" height="30" as="geometry" />
        </mxCell>
        <mxCell id="-3Q4nJQPwr2-92pg-q6b-34" value="" style="endArrow=none;html=1;rounded=0;" parent="1" edge="1">
          <mxGeometry relative="1" as="geometry">
            <mxPoint x="500" y="340" as="sourcePoint" />
            <mxPoint x="620" y="190" as="targetPoint" />
            <Array as="points">
              <mxPoint x="500" y="320" />
              <mxPoint x="570" y="320" />
              <mxPoint x="570" y="190" />
            </Array>
          </mxGeometry>
        </mxCell>
        <mxCell id="-3Q4nJQPwr2-92pg-q6b-35" value="1..*" style="resizable=0;html=1;whiteSpace=wrap;align=right;verticalAlign=bottom;" parent="-3Q4nJQPwr2-92pg-q6b-34" connectable="0" vertex="1">
          <mxGeometry x="1" relative="1" as="geometry">
            <mxPoint x="-10" y="-10" as="offset" />
          </mxGeometry>
        </mxCell>
        <mxCell id="-3Q4nJQPwr2-92pg-q6b-36" value="" style="endArrow=none;html=1;rounded=0;" parent="1" edge="1">
          <mxGeometry relative="1" as="geometry">
            <mxPoint x="315" y="650" as="sourcePoint" />
            <mxPoint x="350" y="570" as="targetPoint" />
            <Array as="points">
              <mxPoint x="315" y="570" />
            </Array>
          </mxGeometry>
        </mxCell>
        <mxCell id="-3Q4nJQPwr2-92pg-q6b-37" value="1..1" style="resizable=0;html=1;whiteSpace=wrap;align=left;verticalAlign=bottom;" parent="-3Q4nJQPwr2-92pg-q6b-36" connectable="0" vertex="1">
          <mxGeometry x="-1" relative="1" as="geometry">
            <mxPoint x="5" y="-80" as="offset" />
          </mxGeometry>
        </mxCell>
        <mxCell id="-3Q4nJQPwr2-92pg-q6b-38" value="0..*" style="resizable=0;html=1;whiteSpace=wrap;align=right;verticalAlign=bottom;" parent="-3Q4nJQPwr2-92pg-q6b-36" connectable="0" vertex="1">
          <mxGeometry x="1" relative="1" as="geometry">
            <mxPoint x="-40" y="62" as="offset" />
          </mxGeometry>
        </mxCell>
        <mxCell id="-3Q4nJQPwr2-92pg-q6b-39" value="" style="line;strokeWidth=1;rotatable=0;dashed=0;labelPosition=right;align=left;verticalAlign=middle;spacingTop=0;spacingLeft=6;points=[];portConstraint=eastwest;" parent="1" vertex="1">
          <mxGeometry x="520" y="400" width="130" height="50" as="geometry" />
        </mxCell>
        <mxCell id="-3Q4nJQPwr2-92pg-q6b-40" value="1..1&lt;br&gt;" style="text;html=1;align=center;verticalAlign=middle;resizable=0;points=[];autosize=1;strokeColor=none;fillColor=none;" parent="1" vertex="1">
          <mxGeometry x="610" y="400" width="40" height="30" as="geometry" />
        </mxCell>
        <mxCell id="-3Q4nJQPwr2-92pg-q6b-41" value="0..*" style="text;html=1;align=center;verticalAlign=middle;resizable=0;points=[];autosize=1;strokeColor=none;fillColor=none;" parent="1" vertex="1">
          <mxGeometry x="530" y="400" width="40" height="30" as="geometry" />
        </mxCell>
        <mxCell id="-3Q4nJQPwr2-92pg-q6b-42" value="" style="endArrow=none;html=1;rounded=0;exitX=0.5;exitY=0;exitDx=0;exitDy=0;entryX=0.502;entryY=1.01;entryDx=0;entryDy=0;entryPerimeter=0;" parent="1" target="-3Q4nJQPwr2-92pg-q6b-12" edge="1">
          <mxGeometry relative="1" as="geometry">
            <mxPoint x="444.5" y="340" as="sourcePoint" />
            <mxPoint x="445.1199999999999" y="232.18399999999997" as="targetPoint" />
            <Array as="points" />
          </mxGeometry>
        </mxCell>
        <mxCell id="-3Q4nJQPwr2-92pg-q6b-43" value="1..1" style="text;html=1;align=center;verticalAlign=middle;resizable=0;points=[];autosize=1;strokeColor=none;fillColor=none;" parent="1" vertex="1">
          <mxGeometry x="440" y="246" width="40" height="30" as="geometry" />
        </mxCell>
        <mxCell id="-3Q4nJQPwr2-92pg-q6b-44" value="1..*&lt;br&gt;" style="text;html=1;align=center;verticalAlign=middle;resizable=0;points=[];autosize=1;strokeColor=none;fillColor=none;" parent="1" vertex="1">
          <mxGeometry x="440" y="310" width="40" height="30" as="geometry" />
        </mxCell>
        <mxCell id="-3Q4nJQPwr2-92pg-q6b-48" value="" style="endArrow=none;html=1;rounded=0;entryX=0;entryY=0;entryDx=0;entryDy=0;" parent="1" target="-3Q4nJQPwr2-92pg-q6b-5" edge="1">
          <mxGeometry relative="1" as="geometry">
            <mxPoint x="210" y="240" as="sourcePoint" />
            <mxPoint x="350" y="330" as="targetPoint" />
            <Array as="points">
              <mxPoint x="280" y="240" />
              <mxPoint x="280" y="340" />
            </Array>
          </mxGeometry>
        </mxCell>
        <mxCell id="-3Q4nJQPwr2-92pg-q6b-49" value="0..*" style="resizable=0;html=1;whiteSpace=wrap;align=right;verticalAlign=bottom;" parent="-3Q4nJQPwr2-92pg-q6b-48" connectable="0" vertex="1">
          <mxGeometry x="1" relative="1" as="geometry">
            <mxPoint x="-110" y="-105" as="offset" />
          </mxGeometry>
        </mxCell>
        <mxCell id="-3Q4nJQPwr2-92pg-q6b-50" value="1..1" style="text;html=1;align=center;verticalAlign=middle;resizable=0;points=[];autosize=1;strokeColor=none;fillColor=none;" parent="1" vertex="1">
          <mxGeometry x="300" y="310" width="40" height="30" as="geometry" />
        </mxCell>
        <mxCell id="-3Q4nJQPwr2-92pg-q6b-54" value="" style="endArrow=none;html=1;rounded=0;entryX=0.604;entryY=0.033;entryDx=0;entryDy=0;entryPerimeter=0;exitX=0.498;exitY=1.031;exitDx=0;exitDy=0;exitPerimeter=0;" parent="1" source="-3Q4nJQPwr2-92pg-q6b-20" edge="1">
          <mxGeometry relative="1" as="geometry">
            <mxPoint x="70" y="620" as="sourcePoint" />
            <mxPoint x="124.55999999999995" y="674.29" as="targetPoint" />
          </mxGeometry>
        </mxCell>
        <mxCell id="-3Q4nJQPwr2-92pg-q6b-55" value="1..*" style="text;html=1;align=center;verticalAlign=middle;resizable=0;points=[];autosize=1;strokeColor=none;fillColor=none;" parent="1" vertex="1">
          <mxGeometry x="80" y="610" width="40" height="30" as="geometry" />
        </mxCell>
        <mxCell id="-3Q4nJQPwr2-92pg-q6b-56" value="1..1&lt;br&gt;" style="text;html=1;align=center;verticalAlign=middle;resizable=0;points=[];autosize=1;strokeColor=none;fillColor=none;" parent="1" vertex="1">
          <mxGeometry x="80" y="640" width="40" height="30" as="geometry" />
        </mxCell>
        <mxCell id="-3Q4nJQPwr2-92pg-q6b-57" value="Cost" style="swimlane;fontStyle=1;align=center;verticalAlign=top;childLayout=stackLayout;horizontal=1;startSize=26;horizontalStack=0;resizeParent=1;resizeParentMax=0;resizeLast=0;collapsible=1;marginBottom=0;whiteSpace=wrap;html=1;" parent="1" vertex="1">
          <mxGeometry x="640" y="650" width="190" height="270" as="geometry" />
        </mxCell>
        <mxCell id="-3Q4nJQPwr2-92pg-q6b-58" value="&lt;div&gt;&lt;b&gt;CostID (Primary Key): integer&amp;nbsp;&lt;/b&gt;&lt;/div&gt;&lt;div&gt;Description: text&lt;/div&gt;&lt;div&gt;Amount: numeric&lt;/div&gt;&lt;div&gt;CostDate: Date&lt;/div&gt;&lt;div&gt;-Type: {instructor,vehicle,taxes, rent,other}&lt;/div&gt;&lt;div&gt;&lt;br&gt;&lt;/div&gt;" style="text;strokeColor=none;fillColor=none;align=left;verticalAlign=top;spacingLeft=4;spacingRight=4;overflow=hidden;rotatable=0;points=[[0,0.5],[1,0.5]];portConstraint=eastwest;whiteSpace=wrap;html=1;" parent="-3Q4nJQPwr2-92pg-q6b-57" vertex="1">
          <mxGeometry y="26" width="190" height="134" as="geometry" />
        </mxCell>
        <mxCell id="-3Q4nJQPwr2-92pg-q6b-59" value="" style="line;strokeWidth=1;fillColor=none;align=left;verticalAlign=middle;spacingTop=-1;spacingLeft=3;spacingRight=3;rotatable=0;labelPosition=right;points=[];portConstraint=eastwest;strokeColor=inherit;" parent="-3Q4nJQPwr2-92pg-q6b-57" vertex="1">
          <mxGeometry y="160" width="190" height="8" as="geometry" />
        </mxCell>
        <mxCell id="-3Q4nJQPwr2-92pg-q6b-60" value="+add&lt;br style=&quot;border-color: var(--border-color);&quot;&gt;+retrieval&lt;br style=&quot;border-color: var(--border-color);&quot;&gt;+update&lt;br style=&quot;border-color: var(--border-color);&quot;&gt;+delete&lt;br&gt;+search&lt;br&gt;+reprot" style="text;strokeColor=none;fillColor=none;align=left;verticalAlign=top;spacingLeft=4;spacingRight=4;overflow=hidden;rotatable=0;points=[[0,0.5],[1,0.5]];portConstraint=eastwest;whiteSpace=wrap;html=1;" parent="-3Q4nJQPwr2-92pg-q6b-57" vertex="1">
          <mxGeometry y="168" width="190" height="102" as="geometry" />
        </mxCell>
        <mxCell id="-3Q4nJQPwr2-92pg-q6b-68" value="" style="endArrow=none;html=1;rounded=0;entryX=-0.001;entryY=0.703;entryDx=0;entryDy=0;entryPerimeter=0;" parent="1" target="-3Q4nJQPwr2-92pg-q6b-58" edge="1">
          <mxGeometry relative="1" as="geometry">
            <mxPoint x="420" y="770" as="sourcePoint" />
            <mxPoint x="550" y="770" as="targetPoint" />
          </mxGeometry>
        </mxCell>
        <mxCell id="-3Q4nJQPwr2-92pg-q6b-69" value="0..*" style="text;html=1;align=center;verticalAlign=middle;resizable=0;points=[];autosize=1;strokeColor=none;fillColor=none;" parent="1" vertex="1">
          <mxGeometry x="425" y="770" width="40" height="30" as="geometry" />
        </mxCell>
        <mxCell id="-3Q4nJQPwr2-92pg-q6b-70" value="0..1" style="text;html=1;align=center;verticalAlign=middle;resizable=0;points=[];autosize=1;strokeColor=none;fillColor=none;" parent="1" vertex="1">
          <mxGeometry x="600" y="770" width="40" height="30" as="geometry" />
        </mxCell>
        <mxCell id="-3Q4nJQPwr2-92pg-q6b-71" value="" style="endArrow=none;html=1;rounded=0;entryX=1;entryY=0.5;entryDx=0;entryDy=0;" parent="1" target="-3Q4nJQPwr2-92pg-q6b-58" edge="1">
          <mxGeometry relative="1" as="geometry">
            <mxPoint x="790" y="160" as="sourcePoint" />
            <mxPoint x="880" y="780" as="targetPoint" />
            <Array as="points">
              <mxPoint x="920" y="160" />
              <mxPoint x="920" y="743" />
            </Array>
          </mxGeometry>
        </mxCell>
        <mxCell id="-3Q4nJQPwr2-92pg-q6b-72" value="0..1&lt;br&gt;&lt;br&gt;" style="text;html=1;align=center;verticalAlign=middle;resizable=0;points=[];autosize=1;strokeColor=none;fillColor=none;" parent="1" vertex="1">
          <mxGeometry x="850" y="753" width="40" height="40" as="geometry" />
        </mxCell>
        <mxCell id="-3Q4nJQPwr2-92pg-q6b-73" value="0..*" style="text;html=1;align=center;verticalAlign=middle;resizable=0;points=[];autosize=1;strokeColor=none;fillColor=none;" parent="1" vertex="1">
          <mxGeometry x="800" y="130" width="40" height="30" as="geometry" />
        </mxCell>
        <mxCell id="-3Q4nJQPwr2-92pg-q6b-74" value="1..1" style="text;html=1;align=center;verticalAlign=middle;resizable=0;points=[];autosize=1;strokeColor=none;fillColor=none;" parent="1" vertex="1">
          <mxGeometry x="500" y="290" width="40" height="30" as="geometry" />
        </mxCell>
        <mxCell id="7CEAPsgzX22psqWGveN5-20" value="Student_address&lt;br&gt;" style="swimlane;fontStyle=1;align=center;verticalAlign=top;childLayout=stackLayout;horizontal=1;startSize=26;horizontalStack=0;resizeParent=1;resizeParentMax=0;resizeLast=0;collapsible=1;marginBottom=0;whiteSpace=wrap;html=1;" parent="1" vertex="1">
          <mxGeometry x="30" y="670" width="170" height="190" as="geometry" />
        </mxCell>
        <mxCell id="7CEAPsgzX22psqWGveN5-21" value="-city: var char&lt;br style=&quot;border-color: var(--border-color);&quot;&gt;-street: var char&lt;br style=&quot;border-color: var(--border-color);&quot;&gt;-houseNumber: var char" style="text;strokeColor=none;fillColor=none;align=left;verticalAlign=top;spacingLeft=4;spacingRight=4;overflow=hidden;rotatable=0;points=[[0,0.5],[1,0.5]];portConstraint=eastwest;whiteSpace=wrap;html=1;" parent="7CEAPsgzX22psqWGveN5-20" vertex="1">
          <mxGeometry y="26" width="170" height="74" as="geometry" />
        </mxCell>
        <mxCell id="7CEAPsgzX22psqWGveN5-22" value="" style="line;strokeWidth=1;fillColor=none;align=left;verticalAlign=middle;spacingTop=-1;spacingLeft=3;spacingRight=3;rotatable=0;labelPosition=right;points=[];portConstraint=eastwest;strokeColor=inherit;" parent="7CEAPsgzX22psqWGveN5-20" vertex="1">
          <mxGeometry y="100" width="170" height="8" as="geometry" />
        </mxCell>
        <mxCell id="7CEAPsgzX22psqWGveN5-23" value="+add&lt;br style=&quot;border-color: var(--border-color);&quot;&gt;+retrieval&lt;br style=&quot;border-color: var(--border-color);&quot;&gt;+update&lt;br style=&quot;border-color: var(--border-color);&quot;&gt;+delete" style="text;strokeColor=none;fillColor=none;align=left;verticalAlign=top;spacingLeft=4;spacingRight=4;overflow=hidden;rotatable=0;points=[[0,0.5],[1,0.5]];portConstraint=eastwest;whiteSpace=wrap;html=1;" parent="7CEAPsgzX22psqWGveN5-20" vertex="1">
          <mxGeometry y="108" width="170" height="82" as="geometry" />
        </mxCell>
        <mxCell id="7CEAPsgzX22psqWGveN5-25" value="Vehicle" style="swimlane;fontStyle=1;align=center;verticalAlign=top;childLayout=stackLayout;horizontal=1;startSize=26;horizontalStack=0;resizeParent=1;resizeParentMax=0;resizeLast=0;collapsible=1;marginBottom=0;whiteSpace=wrap;html=1;" parent="1" vertex="1">
          <mxGeometry x="215" y="640" width="210" height="340" as="geometry" />
        </mxCell>
        <mxCell id="7CEAPsgzX22psqWGveN5-26" value="&lt;div style=&quot;border-color: var(--border-color);&quot;&gt;&lt;b&gt;-LicensePlate:&amp;nbsp;var char&lt;/b&gt;&lt;/div&gt;&lt;div style=&quot;border-color: var(--border-color);&quot;&gt;&lt;/div&gt;&lt;div style=&quot;border-color: var(--border-color);&quot;&gt;-Make:&amp;nbsp;var char&lt;br&gt;&lt;/div&gt;&lt;div style=&quot;border-color: var(--border-color);&quot;&gt;-Model:&amp;nbsp;var char&lt;/div&gt;&lt;div style=&quot;border-color: var(--border-color);&quot;&gt;-Year: numeric&lt;/div&gt;&lt;div style=&quot;border-color: var(--border-color);&quot;&gt;&lt;span style=&quot;background-color: initial;&quot;&gt;-fule type:&amp;nbsp;&lt;/span&gt;&lt;br&gt;&lt;/div&gt;&lt;div style=&quot;border-color: var(--border-color);&quot;&gt;&lt;div style=&quot;border-color: var(--border-color);&quot;&gt;{Petrol,&amp;nbsp;Diesel,Electric,&amp;nbsp;Hybrid}&lt;/div&gt;&lt;div style=&quot;border-color: var(--border-color);&quot;&gt;-transmission type: {Automatic,&amp;nbsp;Manual,other}&lt;/div&gt;&lt;/div&gt;&lt;div style=&quot;border-color: var(--border-color);&quot;&gt;-insurance:&lt;/div&gt;&lt;div style=&quot;border-color: var(--border-color);&quot;&gt;&amp;nbsp; &amp;nbsp; CoverageType:&amp;nbsp;var char&lt;br style=&quot;border-color: var(--border-color);&quot;&gt;&lt;/div&gt;&lt;div style=&quot;border-color: var(--border-color);&quot;&gt;&amp;nbsp; &amp;nbsp; InsurancePolicyNumber:&amp;nbsp;var char&lt;br style=&quot;border-color: var(--border-color);&quot;&gt;&lt;/div&gt;&lt;div style=&quot;border-color: var(--border-color);&quot;&gt;&amp;nbsp; &amp;nbsp; CoverageAmount:&amp;nbsp;var char&lt;br style=&quot;border-color: var(--border-color);&quot;&gt;&lt;/div&gt;&lt;div style=&quot;border-color: var(--border-color);&quot;&gt;&amp;nbsp; &amp;nbsp; EffectiveDate: Date&lt;br style=&quot;border-color: var(--border-color);&quot;&gt;&lt;/div&gt;&lt;div style=&quot;border-color: var(--border-color);&quot;&gt;&lt;br&gt;&lt;/div&gt;&lt;div style=&quot;border-color: var(--border-color);&quot;&gt;&lt;br style=&quot;border-color: var(--border-color);&quot;&gt;&lt;/div&gt;" style="text;strokeColor=none;fillColor=none;align=left;verticalAlign=top;spacingLeft=4;spacingRight=4;overflow=hidden;rotatable=0;points=[[0,0.5],[1,0.5]];portConstraint=eastwest;whiteSpace=wrap;html=1;" parent="7CEAPsgzX22psqWGveN5-25" vertex="1">
          <mxGeometry y="26" width="210" height="214" as="geometry" />
        </mxCell>
        <mxCell id="7CEAPsgzX22psqWGveN5-27" value="" style="line;strokeWidth=1;fillColor=none;align=left;verticalAlign=middle;spacingTop=-1;spacingLeft=3;spacingRight=3;rotatable=0;labelPosition=right;points=[];portConstraint=eastwest;strokeColor=inherit;" parent="7CEAPsgzX22psqWGveN5-25" vertex="1">
          <mxGeometry y="240" width="210" height="8" as="geometry" />
        </mxCell>
        <mxCell id="7CEAPsgzX22psqWGveN5-28" value="+add&lt;br style=&quot;border-color: var(--border-color);&quot;&gt;+retrieval&lt;br style=&quot;border-color: var(--border-color);&quot;&gt;+update&lt;br style=&quot;border-color: var(--border-color);&quot;&gt;+delete&lt;br&gt;+search" style="text;strokeColor=none;fillColor=none;align=left;verticalAlign=top;spacingLeft=4;spacingRight=4;overflow=hidden;rotatable=0;points=[[0,0.5],[1,0.5]];portConstraint=eastwest;whiteSpace=wrap;html=1;" parent="7CEAPsgzX22psqWGveN5-25" vertex="1">
          <mxGeometry y="248" width="210" height="92" as="geometry" />
        </mxCell>
        <mxCell id="7CEAPsgzX22psqWGveN5-39" value="vehicle_type" style="swimlane;fontStyle=1;align=center;verticalAlign=top;childLayout=stackLayout;horizontal=1;startSize=26;horizontalStack=0;resizeParent=1;resizeParentMax=0;resizeLast=0;collapsible=1;marginBottom=0;whiteSpace=wrap;html=1;" parent="1" vertex="1">
          <mxGeometry x="480" y="870" width="150" height="130" as="geometry" />
        </mxCell>
        <mxCell id="7CEAPsgzX22psqWGveN5-40" value="&lt;b&gt;typeID: var char&lt;/b&gt;&lt;br&gt;the_type: var char" style="text;strokeColor=none;fillColor=none;align=left;verticalAlign=top;spacingLeft=4;spacingRight=4;overflow=hidden;rotatable=0;points=[[0,0.5],[1,0.5]];portConstraint=eastwest;whiteSpace=wrap;html=1;" parent="7CEAPsgzX22psqWGveN5-39" vertex="1">
          <mxGeometry y="26" width="150" height="44" as="geometry" />
        </mxCell>
        <mxCell id="7CEAPsgzX22psqWGveN5-41" value="" style="line;strokeWidth=1;fillColor=none;align=left;verticalAlign=middle;spacingTop=-1;spacingLeft=3;spacingRight=3;rotatable=0;labelPosition=right;points=[];portConstraint=eastwest;strokeColor=inherit;" parent="7CEAPsgzX22psqWGveN5-39" vertex="1">
          <mxGeometry y="70" width="150" height="8" as="geometry" />
        </mxCell>
        <mxCell id="7CEAPsgzX22psqWGveN5-42" value="+add&lt;br style=&quot;border-color: var(--border-color);&quot;&gt;+retrieval&lt;br style=&quot;border-color: var(--border-color);&quot;&gt;+delete" style="text;strokeColor=none;fillColor=none;align=left;verticalAlign=top;spacingLeft=4;spacingRight=4;overflow=hidden;rotatable=0;points=[[0,0.5],[1,0.5]];portConstraint=eastwest;whiteSpace=wrap;html=1;" parent="7CEAPsgzX22psqWGveN5-39" vertex="1">
          <mxGeometry y="78" width="150" height="52" as="geometry" />
        </mxCell>
        <mxCell id="7CEAPsgzX22psqWGveN5-45" value="" style="endArrow=none;html=1;rounded=0;entryX=-0.024;entryY=0.727;entryDx=0;entryDy=0;entryPerimeter=0;" parent="1" target="7CEAPsgzX22psqWGveN5-40" edge="1">
          <mxGeometry relative="1" as="geometry">
            <mxPoint x="420" y="850" as="sourcePoint" />
            <mxPoint x="630" y="1020" as="targetPoint" />
            <Array as="points">
              <mxPoint x="450" y="850" />
              <mxPoint x="450" y="928" />
            </Array>
          </mxGeometry>
        </mxCell>
        <mxCell id="7CEAPsgzX22psqWGveN5-47" value="1,1" style="text;html=1;align=center;verticalAlign=middle;resizable=0;points=[];autosize=1;strokeColor=none;fillColor=none;" parent="1" vertex="1">
          <mxGeometry x="425" y="818" width="40" height="30" as="geometry" />
        </mxCell>
        <mxCell id="7CEAPsgzX22psqWGveN5-48" value="0,*" style="text;html=1;align=center;verticalAlign=middle;resizable=0;points=[];autosize=1;strokeColor=none;fillColor=none;" parent="1" vertex="1">
          <mxGeometry x="440" y="930" width="40" height="30" as="geometry" />
        </mxCell>
        <mxCell id="7CEAPsgzX22psqWGveN5-51" value="" style="endArrow=none;html=1;rounded=0;exitX=1.005;exitY=0.745;exitDx=0;exitDy=0;exitPerimeter=0;entryX=1.014;entryY=0.095;entryDx=0;entryDy=0;entryPerimeter=0;" parent="1" source="7CEAPsgzX22psqWGveN5-40" target="-3Q4nJQPwr2-92pg-q6b-2" edge="1">
          <mxGeometry relative="1" as="geometry">
            <mxPoint x="680" y="960" as="sourcePoint" />
            <mxPoint x="270" y="100" as="targetPoint" />
            <Array as="points">
              <mxPoint x="980" y="929" />
              <mxPoint x="980" y="20" />
              <mxPoint x="270" y="20" />
              <mxPoint x="270" y="77" />
            </Array>
          </mxGeometry>
        </mxCell>
        <mxCell id="7CEAPsgzX22psqWGveN5-52" value="0..*&lt;br&gt;" style="text;html=1;align=center;verticalAlign=middle;resizable=0;points=[];autosize=1;strokeColor=none;fillColor=none;" parent="1" vertex="1">
          <mxGeometry x="650" y="945" width="40" height="30" as="geometry" />
        </mxCell>
        <mxCell id="7CEAPsgzX22psqWGveN5-53" value="1,1" style="text;html=1;align=center;verticalAlign=middle;resizable=0;points=[];autosize=1;strokeColor=none;fillColor=none;" parent="1" vertex="1">
          <mxGeometry x="220" y="50" width="40" height="30" as="geometry" />
        </mxCell>
        <mxCell id="7CEAPsgzX22psqWGveN5-54" value="Admin" style="swimlane;fontStyle=1;align=center;verticalAlign=top;childLayout=stackLayout;horizontal=1;startSize=26;horizontalStack=0;resizeParent=1;resizeParentMax=0;resizeLast=0;collapsible=1;marginBottom=0;whiteSpace=wrap;html=1;" parent="1" vertex="1">
          <mxGeometry x="1070" y="358" width="170" height="260" as="geometry" />
        </mxCell>
        <mxCell id="7CEAPsgzX22psqWGveN5-55" value="&lt;b&gt;- adminID: var char&lt;br&gt;&lt;/b&gt;- name:&lt;br&gt;&amp;nbsp; &amp;nbsp; FName: var char&lt;br&gt;&amp;nbsp; &amp;nbsp; LName : var char&lt;br&gt;- DateOfBirth: date&lt;br&gt;-PhoneNumber: var char&lt;br&gt;-Email: var char&lt;br&gt;-password:var char&lt;br&gt;-gender:{male,female}" style="text;strokeColor=none;fillColor=none;align=left;verticalAlign=top;spacingLeft=4;spacingRight=4;overflow=hidden;rotatable=0;points=[[0,0.5],[1,0.5]];portConstraint=eastwest;whiteSpace=wrap;html=1;" parent="7CEAPsgzX22psqWGveN5-54" vertex="1">
          <mxGeometry y="26" width="170" height="154" as="geometry" />
        </mxCell>
        <mxCell id="7CEAPsgzX22psqWGveN5-56" value="" style="line;strokeWidth=1;fillColor=none;align=left;verticalAlign=middle;spacingTop=-1;spacingLeft=3;spacingRight=3;rotatable=0;labelPosition=right;points=[];portConstraint=eastwest;strokeColor=inherit;" parent="7CEAPsgzX22psqWGveN5-54" vertex="1">
          <mxGeometry y="180" width="170" height="8" as="geometry" />
        </mxCell>
        <mxCell id="7CEAPsgzX22psqWGveN5-57" value="+add&lt;br style=&quot;border-color: var(--border-color);&quot;&gt;+retrieval&lt;br style=&quot;border-color: var(--border-color);&quot;&gt;+update&lt;br style=&quot;border-color: var(--border-color);&quot;&gt;+delete" style="text;strokeColor=none;fillColor=none;align=left;verticalAlign=top;spacingLeft=4;spacingRight=4;overflow=hidden;rotatable=0;points=[[0,0.5],[1,0.5]];portConstraint=eastwest;whiteSpace=wrap;html=1;" parent="7CEAPsgzX22psqWGveN5-54" vertex="1">
          <mxGeometry y="188" width="170" height="72" as="geometry" />
        </mxCell>
      </root>
    </mxGraphModel>
  </diagram>
</mxfile>
